<mxfile host="app.diagrams.net" modified="2022-11-29T10:51:09.082Z" agent="5.0 (Windows NT 10.0; Win64; x64) AppleWebKit/537.36 (KHTML, like Gecko) Chrome/107.0.0.0 Safari/537.36 Edg/107.0.1418.56" etag="LaPq-nZQtu20TfR1H7qb" version="20.6.0" type="github">
  <diagram id="gl40M-7QrM561X13KIHA" name="Page-1">
    <mxGraphModel dx="2966" dy="2731" grid="1" gridSize="10" guides="1" tooltips="1" connect="1" arrows="1" fold="1" page="1" pageScale="1" pageWidth="850" pageHeight="1100" math="0" shadow="0">
      <root>
        <mxCell id="0" />
        <mxCell id="1" parent="0" />
        <mxCell id="NTdYHPc6Kx5etdDxWIbT-3" style="edgeStyle=orthogonalEdgeStyle;rounded=0;orthogonalLoop=1;jettySize=auto;html=1;exitX=0.5;exitY=1;exitDx=0;exitDy=0;exitPerimeter=0;entryX=0.5;entryY=0;entryDx=0;entryDy=0;entryPerimeter=0;" edge="1" parent="1" target="NTdYHPc6Kx5etdDxWIbT-1">
          <mxGeometry relative="1" as="geometry">
            <mxPoint x="427.99999999999955" y="-410" as="sourcePoint" />
          </mxGeometry>
        </mxCell>
        <mxCell id="snVJ0buKUl2yUb0_0TGT-1" value="&lt;font style=&quot;font-size: 24px;&quot;&gt;เริ่มต้น&lt;/font&gt;" style="strokeWidth=2;html=1;shape=mxgraph.flowchart.start_1;whiteSpace=wrap;fillColor=#dae8fc;strokeColor=#6c8ebf;" parent="1" vertex="1">
          <mxGeometry x="282" y="-530" width="287" height="120" as="geometry" />
        </mxCell>
        <mxCell id="snVJ0buKUl2yUb0_0TGT-5" value="" style="edgeStyle=orthogonalEdgeStyle;rounded=0;orthogonalLoop=1;jettySize=auto;html=1;fontSize=24;" parent="1" source="snVJ0buKUl2yUb0_0TGT-2" target="snVJ0buKUl2yUb0_0TGT-4" edge="1">
          <mxGeometry relative="1" as="geometry" />
        </mxCell>
        <mxCell id="snVJ0buKUl2yUb0_0TGT-2" value="&lt;font style=&quot;font-size: 24px;&quot;&gt;รับค่าตัวเลขจากผู้เล่นให้อยู่ในตัวแปร Player&lt;/font&gt;" style="shape=parallelogram;perimeter=parallelogramPerimeter;whiteSpace=wrap;html=1;fixedSize=1;strokeWidth=2;fillColor=#d5e8d4;strokeColor=#82b366;" parent="1" vertex="1">
          <mxGeometry x="189.5" y="170" width="477" height="90" as="geometry" />
        </mxCell>
        <mxCell id="snVJ0buKUl2yUb0_0TGT-7" value="" style="edgeStyle=orthogonalEdgeStyle;rounded=0;orthogonalLoop=1;jettySize=auto;html=1;fontSize=24;" parent="1" source="snVJ0buKUl2yUb0_0TGT-4" target="snVJ0buKUl2yUb0_0TGT-6" edge="1">
          <mxGeometry relative="1" as="geometry" />
        </mxCell>
        <mxCell id="snVJ0buKUl2yUb0_0TGT-4" value="&lt;font style=&quot;font-size: 24px;&quot;&gt;กำหนดให้ Random&lt;br&gt;&amp;nbsp;เท่ากับการสุ่มตัวเลข0ถึง10 Range(0,10)&lt;/font&gt;" style="whiteSpace=wrap;html=1;strokeWidth=2;fillColor=#f8cecc;strokeColor=#b85450;" parent="1" vertex="1">
          <mxGeometry x="222" y="360" width="412" height="115" as="geometry" />
        </mxCell>
        <mxCell id="snVJ0buKUl2yUb0_0TGT-9" value="" style="edgeStyle=orthogonalEdgeStyle;rounded=0;orthogonalLoop=1;jettySize=auto;html=1;fontSize=24;" parent="1" source="snVJ0buKUl2yUb0_0TGT-6" target="snVJ0buKUl2yUb0_0TGT-8" edge="1">
          <mxGeometry relative="1" as="geometry" />
        </mxCell>
        <mxCell id="snVJ0buKUl2yUb0_0TGT-6" value="&lt;font style=&quot;font-size: 24px;&quot;&gt;Random สุ่มได้ตัวเลข 3&lt;/font&gt;" style="whiteSpace=wrap;html=1;strokeWidth=2;fillColor=#f8cecc;strokeColor=#b85450;" parent="1" vertex="1">
          <mxGeometry x="229.5" y="540" width="397" height="120" as="geometry" />
        </mxCell>
        <mxCell id="snVJ0buKUl2yUb0_0TGT-18" value="จริง" style="edgeStyle=orthogonalEdgeStyle;rounded=0;orthogonalLoop=1;jettySize=auto;html=1;exitX=1;exitY=0.5;exitDx=0;exitDy=0;entryX=0;entryY=0.5;entryDx=0;entryDy=0;entryPerimeter=0;fontSize=24;" parent="1" source="snVJ0buKUl2yUb0_0TGT-8" target="snVJ0buKUl2yUb0_0TGT-17" edge="1">
          <mxGeometry relative="1" as="geometry" />
        </mxCell>
        <mxCell id="snVJ0buKUl2yUb0_0TGT-38" value="เท็จ" style="edgeStyle=orthogonalEdgeStyle;rounded=0;orthogonalLoop=1;jettySize=auto;html=1;exitX=0.5;exitY=1;exitDx=0;exitDy=0;entryX=0.5;entryY=0;entryDx=0;entryDy=0;fontSize=24;" parent="1" source="snVJ0buKUl2yUb0_0TGT-8" target="snVJ0buKUl2yUb0_0TGT-10" edge="1">
          <mxGeometry relative="1" as="geometry" />
        </mxCell>
        <mxCell id="snVJ0buKUl2yUb0_0TGT-8" value="&lt;font style=&quot;font-size: 24px;&quot;&gt;ค่าของผู้เล่น(Player)มีค่ามากกว่า 10 จริงหรือไม่&lt;br&gt;Player &amp;gt; 10&lt;br&gt;และค่าPlayerน้อยกว่า 0 จริงหรือไม่&lt;br&gt;Player &amp;lt; 0&lt;br&gt;&lt;/font&gt;" style="rhombus;whiteSpace=wrap;html=1;strokeWidth=2;fillColor=#e1d5e7;strokeColor=#9673a6;" parent="1" vertex="1">
          <mxGeometry x="50" y="760" width="756" height="620" as="geometry" />
        </mxCell>
        <mxCell id="snVJ0buKUl2yUb0_0TGT-14" value="จริง" style="edgeStyle=orthogonalEdgeStyle;rounded=0;orthogonalLoop=1;jettySize=auto;html=1;exitX=0.5;exitY=1;exitDx=0;exitDy=0;entryX=0.5;entryY=0;entryDx=0;entryDy=0;entryPerimeter=0;fontSize=24;" parent="1" source="snVJ0buKUl2yUb0_0TGT-10" target="snVJ0buKUl2yUb0_0TGT-13" edge="1">
          <mxGeometry relative="1" as="geometry" />
        </mxCell>
        <mxCell id="snVJ0buKUl2yUb0_0TGT-36" value="เท็จ" style="edgeStyle=orthogonalEdgeStyle;rounded=0;orthogonalLoop=1;jettySize=auto;html=1;exitX=1;exitY=0.5;exitDx=0;exitDy=0;entryX=0;entryY=0.5;entryDx=0;entryDy=0;entryPerimeter=0;fontSize=24;" parent="1" source="snVJ0buKUl2yUb0_0TGT-10" target="snVJ0buKUl2yUb0_0TGT-35" edge="1">
          <mxGeometry relative="1" as="geometry" />
        </mxCell>
        <mxCell id="snVJ0buKUl2yUb0_0TGT-10" value="&lt;span style=&quot;font-size: 24px;&quot;&gt;ค่าของผู้เล่น(Player)มีค่าเท่ากับค่าสุ่ม(Random) จริงหรือไม่&lt;/span&gt;&lt;br style=&quot;font-size: 24px;&quot;&gt;&lt;span style=&quot;font-size: 24px;&quot;&gt;Player == Random&lt;/span&gt;" style="rhombus;whiteSpace=wrap;html=1;strokeWidth=2;fillColor=#e1d5e7;strokeColor=#9673a6;" parent="1" vertex="1">
          <mxGeometry x="72" y="1530" width="707" height="630" as="geometry" />
        </mxCell>
        <mxCell id="NTdYHPc6Kx5etdDxWIbT-16" style="edgeStyle=orthogonalEdgeStyle;rounded=0;orthogonalLoop=1;jettySize=auto;html=1;exitX=0.5;exitY=1;exitDx=0;exitDy=0;exitPerimeter=0;entryX=0;entryY=0.5;entryDx=0;entryDy=0;entryPerimeter=0;" edge="1" parent="1" source="snVJ0buKUl2yUb0_0TGT-13" target="NTdYHPc6Kx5etdDxWIbT-15">
          <mxGeometry relative="1" as="geometry" />
        </mxCell>
        <mxCell id="snVJ0buKUl2yUb0_0TGT-13" value="แสดงข้อความว่า&lt;br&gt;&quot;คำตอบของคุณถูกต้อง ค่าที่ได้เท่ากับ 3&quot;&lt;br&gt;&quot;ขอแสดงความยินดีด้วยครับ&quot;" style="strokeWidth=2;html=1;shape=mxgraph.flowchart.display;whiteSpace=wrap;fontSize=24;fillColor=#fff2cc;strokeColor=#d6b656;" parent="1" vertex="1">
          <mxGeometry x="128" y="2270" width="595" height="330" as="geometry" />
        </mxCell>
        <mxCell id="snVJ0buKUl2yUb0_0TGT-15" value="สิ้นสุดการทำงาน" style="ellipse;whiteSpace=wrap;html=1;fontSize=24;strokeWidth=2;fillColor=#dae8fc;strokeColor=#6c8ebf;" parent="1" vertex="1">
          <mxGeometry x="1062.75" y="3010" width="274.5" height="105" as="geometry" />
        </mxCell>
        <mxCell id="snVJ0buKUl2yUb0_0TGT-20" value="" style="edgeStyle=orthogonalEdgeStyle;rounded=0;orthogonalLoop=1;jettySize=auto;html=1;fontSize=24;" parent="1" source="snVJ0buKUl2yUb0_0TGT-17" target="snVJ0buKUl2yUb0_0TGT-19" edge="1">
          <mxGeometry relative="1" as="geometry" />
        </mxCell>
        <mxCell id="snVJ0buKUl2yUb0_0TGT-17" value="แสดงข้อความว่า&lt;br&gt;&quot;ค่าของคุณมีค่ามากเกินไปนะ&quot;&lt;br&gt;&quot;กด 1 เพื่อเล่นเกมต่อ&quot;&lt;br&gt;&quot;กด 2 เพื่อออกจากเกม&quot;" style="strokeWidth=2;html=1;shape=mxgraph.flowchart.display;whiteSpace=wrap;fontSize=24;fillColor=#fff2cc;strokeColor=#d6b656;" parent="1" vertex="1">
          <mxGeometry x="980" y="935" width="610" height="270" as="geometry" />
        </mxCell>
        <mxCell id="snVJ0buKUl2yUb0_0TGT-22" value="" style="edgeStyle=orthogonalEdgeStyle;rounded=0;orthogonalLoop=1;jettySize=auto;html=1;fontSize=24;" parent="1" source="snVJ0buKUl2yUb0_0TGT-19" target="snVJ0buKUl2yUb0_0TGT-21" edge="1">
          <mxGeometry relative="1" as="geometry" />
        </mxCell>
        <mxCell id="snVJ0buKUl2yUb0_0TGT-19" value="รับค่าจากผู้เล่นเก็บไว้ในตัวแปร&lt;br&gt;Select" style="shape=parallelogram;perimeter=parallelogramPerimeter;whiteSpace=wrap;html=1;fixedSize=1;fontSize=24;strokeWidth=2;fillColor=#d5e8d4;strokeColor=#82b366;" parent="1" vertex="1">
          <mxGeometry x="1745" y="1002.5" width="380" height="135" as="geometry" />
        </mxCell>
        <mxCell id="snVJ0buKUl2yUb0_0TGT-31" value="จริง" style="edgeStyle=orthogonalEdgeStyle;rounded=0;orthogonalLoop=1;jettySize=auto;html=1;exitX=0.5;exitY=0;exitDx=0;exitDy=0;entryX=0.5;entryY=1;entryDx=0;entryDy=0;entryPerimeter=0;fontSize=24;" parent="1" source="snVJ0buKUl2yUb0_0TGT-21" target="snVJ0buKUl2yUb0_0TGT-30" edge="1">
          <mxGeometry relative="1" as="geometry" />
        </mxCell>
        <mxCell id="NTdYHPc6Kx5etdDxWIbT-18" style="edgeStyle=orthogonalEdgeStyle;rounded=0;orthogonalLoop=1;jettySize=auto;html=1;exitX=0.5;exitY=1;exitDx=0;exitDy=0;entryX=1;entryY=0.5;entryDx=0;entryDy=0;entryPerimeter=0;" edge="1" parent="1" source="snVJ0buKUl2yUb0_0TGT-21" target="NTdYHPc6Kx5etdDxWIbT-15">
          <mxGeometry relative="1" as="geometry" />
        </mxCell>
        <mxCell id="snVJ0buKUl2yUb0_0TGT-21" value="ค่าของSelectมีค่าเท่ากับ 1 หรือไม่&lt;br&gt;Select" style="rhombus;whiteSpace=wrap;html=1;fontSize=24;strokeWidth=2;fillColor=#e1d5e7;strokeColor=#9673a6;" parent="1" vertex="1">
          <mxGeometry x="2260" y="925" width="470" height="290" as="geometry" />
        </mxCell>
        <mxCell id="snVJ0buKUl2yUb0_0TGT-27" style="edgeStyle=orthogonalEdgeStyle;rounded=0;orthogonalLoop=1;jettySize=auto;html=1;exitX=0.5;exitY=1;exitDx=0;exitDy=0;exitPerimeter=0;entryX=0.5;entryY=0;entryDx=0;entryDy=0;fontSize=24;" parent="1" target="snVJ0buKUl2yUb0_0TGT-2" edge="1">
          <mxGeometry relative="1" as="geometry">
            <mxPoint x="427.5" y="60" as="sourcePoint" />
          </mxGeometry>
        </mxCell>
        <mxCell id="snVJ0buKUl2yUb0_0TGT-25" value="แสดงข้อความว่า&lt;br&gt;&quot;สวัสดีผู้เล่นทุกคน ลองมาทายตัวเลขกันสิ&quot;" style="strokeWidth=2;html=1;shape=mxgraph.flowchart.display;whiteSpace=wrap;fontSize=24;fillColor=#fff2cc;strokeColor=#d6b656;" parent="1" vertex="1">
          <mxGeometry x="155" y="-170" width="540" height="230" as="geometry" />
        </mxCell>
        <mxCell id="NTdYHPc6Kx5etdDxWIbT-5" style="edgeStyle=orthogonalEdgeStyle;rounded=0;orthogonalLoop=1;jettySize=auto;html=1;exitX=0.5;exitY=0;exitDx=0;exitDy=0;exitPerimeter=0;entryX=1;entryY=0.5;entryDx=0;entryDy=0;entryPerimeter=0;" edge="1" parent="1" source="snVJ0buKUl2yUb0_0TGT-30" target="NTdYHPc6Kx5etdDxWIbT-1">
          <mxGeometry relative="1" as="geometry" />
        </mxCell>
        <mxCell id="snVJ0buKUl2yUb0_0TGT-30" value="แสดงข้อความว่า&lt;br&gt;&quot;มาลองใหม่อีกครั้งนะ&quot;" style="strokeWidth=2;html=1;shape=mxgraph.flowchart.display;whiteSpace=wrap;fontSize=24;fillColor=#fff2cc;strokeColor=#d6b656;" parent="1" vertex="1">
          <mxGeometry x="2230" y="520" width="530" height="280" as="geometry" />
        </mxCell>
        <mxCell id="NTdYHPc6Kx5etdDxWIbT-17" style="edgeStyle=orthogonalEdgeStyle;rounded=0;orthogonalLoop=1;jettySize=auto;html=1;exitX=0.5;exitY=1;exitDx=0;exitDy=0;exitPerimeter=0;entryX=0.5;entryY=0;entryDx=0;entryDy=0;entryPerimeter=0;" edge="1" parent="1" source="snVJ0buKUl2yUb0_0TGT-35" target="NTdYHPc6Kx5etdDxWIbT-15">
          <mxGeometry relative="1" as="geometry" />
        </mxCell>
        <mxCell id="snVJ0buKUl2yUb0_0TGT-35" value="แสดงข้อความว่า&lt;br&gt;&quot;ทายผิดแล้วววว ค่าที่ได้เท่ากับ 3 นะ&quot;" style="strokeWidth=2;html=1;shape=mxgraph.flowchart.display;whiteSpace=wrap;fontSize=24;fillColor=#fff2cc;strokeColor=#d6b656;" parent="1" vertex="1">
          <mxGeometry x="930" y="1685" width="540" height="320" as="geometry" />
        </mxCell>
        <mxCell id="NTdYHPc6Kx5etdDxWIbT-4" style="edgeStyle=orthogonalEdgeStyle;rounded=0;orthogonalLoop=1;jettySize=auto;html=1;exitX=0.5;exitY=1;exitDx=0;exitDy=0;exitPerimeter=0;" edge="1" parent="1" source="NTdYHPc6Kx5etdDxWIbT-1">
          <mxGeometry relative="1" as="geometry">
            <mxPoint x="427.5" y="-170" as="targetPoint" />
          </mxGeometry>
        </mxCell>
        <mxCell id="NTdYHPc6Kx5etdDxWIbT-1" value="" style="verticalLabelPosition=bottom;verticalAlign=top;html=1;shape=mxgraph.flowchart.on-page_reference;" vertex="1" parent="1">
          <mxGeometry x="397.5" y="-320" width="60" height="60" as="geometry" />
        </mxCell>
        <mxCell id="NTdYHPc6Kx5etdDxWIbT-19" style="edgeStyle=orthogonalEdgeStyle;rounded=0;orthogonalLoop=1;jettySize=auto;html=1;exitX=0.5;exitY=1;exitDx=0;exitDy=0;exitPerimeter=0;entryX=0.5;entryY=0;entryDx=0;entryDy=0;" edge="1" parent="1" source="NTdYHPc6Kx5etdDxWIbT-15" target="snVJ0buKUl2yUb0_0TGT-15">
          <mxGeometry relative="1" as="geometry" />
        </mxCell>
        <mxCell id="NTdYHPc6Kx5etdDxWIbT-15" value="" style="verticalLabelPosition=bottom;verticalAlign=top;html=1;shape=mxgraph.flowchart.on-page_reference;" vertex="1" parent="1">
          <mxGeometry x="1170" y="2800" width="60" height="60" as="geometry" />
        </mxCell>
      </root>
    </mxGraphModel>
  </diagram>
</mxfile>
